<svg viewBox="0 0 24 24" xmlns="http://www.w3.org/2000/svg">
<path fill-rule="evenodd" clip-rule="evenodd" d="M17.5556 2H6.44444C5.2657 2 4.13524 2.46825 3.30175 3.30175C2.46825 4.13524 2 5.2657 2 6.44444V17.5556C2 18.7343 2.46825 19.8648 3.30175 20.6983C4.13524 21.5317 5.2657 22 6.44444 22H17.5556C18.7343 22 19.8648 21.5317 20.6983 20.6983C21.5317 19.8648 22 18.7343 22 17.5556V6.44444C22 5.2657 21.5317 4.13524 20.6983 3.30175C19.8648 2.46825 18.7343 2 17.5556 2ZM15.1418 15.1428C14.3083 15.9763 13.1779 16.4446 11.9991 16.4446C10.8204 16.4446 9.68993 15.9763 8.85643 15.1428C8.02294 14.3093 7.55469 13.1788 7.55469 12.0001C7.55469 10.8214 8.02294 9.69091 8.85643 8.85741C9.68993 8.02392 10.8204 7.55566 11.9991 7.55566C13.1779 7.55566 14.3083 8.02392 15.1418 8.85741C15.9753 9.69091 16.4436 10.8214 16.4436 12.0001C16.4436 13.1788 15.9753 14.3093 15.1418 15.1428ZM18.8968 6.67456C18.6884 6.88294 18.4058 7 18.1111 7C17.8164 7 17.5338 6.88294 17.3254 6.67456C17.1171 6.46619 17 6.18357 17 5.88889C17 5.5942 17.1171 5.31159 17.3254 5.10321C17.5338 4.89484 17.8164 4.77778 18.1111 4.77778C18.4058 4.77778 18.6884 4.89484 18.8968 5.10321C19.1052 5.31159 19.2222 5.5942 19.2222 5.88889C19.2222 6.18357 19.1052 6.46619 18.8968 6.67456Z" />
</svg>
