<svg viewBox="0 0 24 24" xmlns="http://www.w3.org/2000/svg">
<path d="M21.503 18.3804H19.222C18.359 18.3804 18.099 17.6814 16.552 16.1334C15.2 14.8304 14.629 14.6684 14.287 14.6684C13.814 14.6684 13.685 14.7984 13.685 15.4494V17.5014C13.685 18.0564 13.505 18.3814 12.055 18.3814C10.6483 18.2869 9.28416 17.8595 8.07497 17.1345C6.86578 16.4095 5.84612 15.4076 5.1 14.2114C3.32839 12.0064 2.09571 9.41844 1.5 6.65336C1.5 6.31136 1.63 6.00136 2.282 6.00136H4.562C5.148 6.00136 5.359 6.26236 5.589 6.86536C6.696 10.1234 8.585 12.9574 9.352 12.9574C9.646 12.9574 9.774 12.8274 9.774 12.0944V8.73836C9.677 7.20736 8.864 7.07836 8.864 6.52436C8.87428 6.3782 8.94114 6.24181 9.05037 6.14415C9.15961 6.04649 9.30261 5.99527 9.449 6.00136H13.033C13.523 6.00136 13.685 6.24536 13.685 6.83136V11.3614C13.685 11.8504 13.895 12.0124 14.043 12.0124C14.337 12.0124 14.563 11.8504 15.102 11.3124C16.2574 9.90334 17.2013 8.33352 17.904 6.65236C17.9759 6.45051 18.1119 6.27773 18.2912 6.16037C18.4705 6.04302 18.6832 5.98752 18.897 6.00236H21.178C21.862 6.00236 22.007 6.34436 21.862 6.83236C21.0324 8.69077 20.0058 10.4549 18.8 12.0944C18.554 12.4694 18.456 12.6644 18.8 13.1044C19.026 13.4464 19.826 14.1144 20.363 14.7494C21.145 15.5294 21.794 16.4314 22.285 17.4194C22.481 18.0554 22.154 18.3804 21.503 18.3804Z" />
</svg>
